<?xml version="1.0" encoding="UTF-8"?>
<svg width="30px" height="46px" viewBox="0 0 30 46" version="1.1" xmlns="http://www.w3.org/2000/svg" xmlns:xlink="http://www.w3.org/1999/xlink">
    <!-- Generator: Sketch 46.2 (44496) - http://www.bohemiancoding.com/sketch -->
    <title>pic_khzl_man@3x</title>
    <desc>Created with Sketch.</desc>
    <defs>
        <linearGradient x1="50%" y1="100%" x2="50%" y2="0%" id="linearGradient-1">
            <stop stop-color="#0F3B9C" offset="0%"></stop>
            <stop stop-color="#36D1DC" offset="100%"></stop>
        </linearGradient>
    </defs>
    <g id="8.0客户资源+切" stroke="none" stroke-width="1" fill="none" fill-rule="evenodd">
        <g id="8.0客户资源-渠道有效总体客户" transform="translate(-53.000000, -811.000000)" fill-rule="nonzero" fill="url(#linearGradient-1)">
            <g id="Group-8" transform="translate(30.000000, 531.000000)">
                <g id="Group-13" transform="translate(20.000000, 226.000000)">
                    <g id="Group-7" transform="translate(3.000000, 54.000000)">
                        <path d="M6.12391686,20.2520396 L4.29781877,20.2520396 C2.47643691,20.2520396 1,21.7284765 1,23.5498584 L1,33.5677607 L3.8447387,33.5677607 L3.8447387,45.4565816 L9.63631015,45.4565816 L9.63631015,33.5677607 L12.481653,33.5677607 L12.481653,23.5498584 C12.481653,21.7284765 11.0051556,20.2520396 9.18383419,20.2520396 L7.35758633,20.2520396 C8.66034729,19.9693554 9.63624974,18.8097954 9.63624974,17.4224036 C9.63624974,15.8227289 8.33989706,14.5263158 6.74076607,14.5263158 C5.14169549,14.5263158 3.84467829,15.8227289 3.84467829,17.4224036 C3.84467829,18.8097954 4.82103549,19.9693554 6.12391686,20.2520396 Z" id="Combined-Shape" opacity="0.7"></path>
                        <path d="M23.0712853,20.2520396 L21.2451872,20.2520396 C19.4238053,20.2520396 17.9473684,21.7284765 17.9473684,23.5498584 L17.9473684,33.5677607 L20.7921071,33.5677607 L20.7921071,45.4565816 L26.5836786,45.4565816 L26.5836786,33.5677607 L29.4290214,33.5677607 L29.4290214,23.5498584 C29.4290214,21.7284765 27.9525241,20.2520396 26.1312026,20.2520396 L24.3049547,20.2520396 C25.6077157,19.9693554 26.5836182,18.8097954 26.5836182,17.4224036 C26.5836182,15.8227289 25.2872655,14.5263158 23.6881345,14.5263158 C22.0890639,14.5263158 20.7920467,15.8227289 20.7920467,17.4224036 C20.7920467,18.8097954 21.7684039,19.9693554 23.0712853,20.2520396 Z" id="Combined-Shape" opacity="0.7"></path>
                        <path d="M14.7254274,8.47368421 L11.9203409,8.47368421 C9.23191014,8.47368421 7.05263158,10.6529628 7.05263158,13.3413936 L7.05263158,28.1282088 L11.2515771,28.1282088 L11.2515771,45.676573 L19.8001628,45.676573 L19.8001628,28.1282088 L24,28.1282088 L24,13.3413936 C24,10.6529628 21.8206323,8.47368421 19.1322906,8.47368421 L16.3269926,8.47368421 C18.3045664,8.09880036 19.8000737,6.36133831 19.8000737,4.27473873 C19.8000737,1.91355638 17.8866064,0 15.5262266,0 C13.165936,0 11.2514879,1.91355638 11.2514879,4.27473873 C11.2514879,6.36133831 12.747692,8.09880036 14.7254274,8.47368421 Z" id="Combined-Shape"></path>
                    </g>
                </g>
            </g>
        </g>
    </g>
</svg>